# xmcd
#
# Track frame offsets:
#	150
#	14547
#	28950
#	43401
#	57624
#	70110
#	83413
#	96659
#	110018
#	121920
#	134796
#	146147
#	158571
#	172297
#	186460
#	201628
#	216403
#	227615
#	240315
#	250444
#	262802
#	276442
#	289419
#	302390
#	314557
#	326261
#
# Disc length: 4507 seconds
#
# Revision: 0
# Processed by: cddbd v1.5.2PL0 Copyright (c) Steve Scherf et al.
# Submitted via: EasyCDDAExtractor 10.0.3.1
#
DISCID=a311991a
DTITLE=Sunnyland Slim - Sunnyland Slim and His Pals, The Classic Sides 1947-53 -
DTITLE=Disc A (SunnyLand Slim)
DYEAR=2006
DGENRE=Blues
TTITLE0=Farewell Little Girl
TTITLE1=Broke And Hungry
TTITLE2=Illinois Central
TTITLE3=Nappy Head Woman
TTITLE4=Across The Hall Blues
TTITLE5=Walking With The Blues
TTITLE6=Sweet Lucy Blues
TTITLE7=No Whiskey Blues
TTITLE8=Jivin' Boogie
TTITLE9=Brown Skin Woman
TTITLE10=My Heavy Load
TTITLE11=Keep Your Hands Out Of My Money
TTITLE12=5 Foot 4 Gal
TTITLE13=I've Done You Wrong
TTITLE14=Roll, Tumble And Slip (I Cried)
TTITLE15=Train Time (4 O'Clock Blues)
TTITLE16=Hard Times
TTITLE17=School Days
TTITLE18=Blue Baby
TTITLE19=I Want My Baby
TTITLE20=Mud Kicking Woman
TTITLE21=Every Time I Get To Drinking
TTITLE22=Bad Times (Cost Of Living)
TTITLE23=Hard times (When Mother's Gone)
TTITLE24=Brown Skin Woman
TTITLE25=I'm Just A Lonesome Man
EXTD=
EXTT0=
EXTT1=
EXTT2=
EXTT3=
EXTT4=
EXTT5=
EXTT6=
EXTT7=
EXTT8=
EXTT9=
EXTT10=
EXTT11=
EXTT12=
EXTT13=
EXTT14=
EXTT15=
EXTT16=
EXTT17=
EXTT18=
EXTT19=
EXTT20=
EXTT21=
EXTT22=
EXTT23=
EXTT24=
EXTT25=
PLAYORDER=
